HIERARCHY
ROOT Hips
{
	OFFSET -3.958830 18.904000 13.208200
	CHANNELS 6 Xposition Yposition Zposition Zrotation Yrotation Xrotation 
	JOINT LHipJoint
	{
		OFFSET 0.000000 0.000000 0.000000
		CHANNELS 3 Zrotation Yrotation Xrotation
		JOINT LeftUpLeg
		{
			OFFSET 1.800000 -1.400000 0.085000
			CHANNELS 3 Zrotation Yrotation Xrotation
			JOINT LeftLeg
			{
				OFFSET 2.215000 -6.000000 0.000000
				CHANNELS 3 Zrotation Yrotation Xrotation
				JOINT LeftFoot
				{
					OFFSET 2.500000 -6.900000 0.000000
					CHANNELS 3 Zrotation Yrotation Xrotation
					JOINT LeftToeBase
					{
						OFFSET 0.200000 -0.500000 1.950000
						CHANNELS 3 Zrotation Yrotation Xrotation
						End Site
						{
							OFFSET 0.000000 0.000000 0.000000
						}
					}
				}
			}
		}
	}
	JOINT RHipJoint
	{
		OFFSET 0.000000 0.000000 0.000000
		CHANNELS 3 Zrotation Yrotation Xrotation
		JOINT RightUpLeg
		{
			OFFSET -1.800000 -1.400000 0.085000
			CHANNELS 3 Zrotation Yrotation Xrotation
			JOINT RightLeg
			{
				OFFSET -2.215000 -6.000000 0.000000
				CHANNELS 3 Zrotation Yrotation Xrotation
				JOINT RightFoot
				{
					OFFSET -2.500000 -6.900000 0.000000
					CHANNELS 3 Zrotation Yrotation Xrotation
					JOINT RightToeBase
					{
						OFFSET -0.200000 -0.500000 1.950000
						CHANNELS 3 Zrotation Yrotation Xrotation
						End Site
						{
							OFFSET 0.000000 0.000000 0.000000
						}
					}
				}
			}
		}
	}
	JOINT LowerBack
	{
		OFFSET 0.000000 0.000000 0.000000
		CHANNELS 3 Zrotation Yrotation Xrotation
		JOINT Spine
		{
			OFFSET -0.087000 1.940000 -0.288900
			CHANNELS 3 Zrotation Yrotation Xrotation
			JOINT Spine1
			{
				OFFSET 0.000000 1.950000 0.060000
				CHANNELS 3 Zrotation Yrotation Xrotation
				JOINT Neck
				{
					OFFSET 0.000000 0.000000 0.000000
					CHANNELS 3 Zrotation Yrotation Xrotation
					JOINT Neck1
					{
						OFFSET 0.000000 1.600000 0.340000
						CHANNELS 3 Zrotation Yrotation Xrotation
						JOINT Head
						{
							OFFSET 0.000000 1.667000 -0.240000
							CHANNELS 3 Zrotation Yrotation Xrotation
							End Site
							{
								OFFSET 0.000000 0.000000 0.000000
							}
						}
					}
				}
				JOINT LeftShoulder
				{
					OFFSET 0.000000 0.000000 0.000000
					CHANNELS 3 Zrotation Yrotation Xrotation
					JOINT LeftArm
					{
						OFFSET 2.700000 1.550000 -0.730000
						CHANNELS 3 Zrotation Yrotation Xrotation
						JOINT LeftForeArm
						{
							OFFSET 5.450000 0.000000 0.000000
							CHANNELS 3 Zrotation Yrotation Xrotation
							JOINT LeftHand
							{
								OFFSET 3.450000 0.000000 0.000000
								CHANNELS 3 Zrotation Yrotation Xrotation
								JOINT LeftHandIndex1
								{
									OFFSET 0.750000 0.000000 0.000000
									CHANNELS 3 Zrotation Yrotation Xrotation
									End Site
									{
										OFFSET 0.000000 0.000000 0.000000
									}
								}
							}
						}
					}
				}
				JOINT RightShoulder
				{
					OFFSET 0.000000 0.000000 0.000000
					CHANNELS 3 Zrotation Yrotation Xrotation
					JOINT RightArm
					{
						OFFSET -2.700000 1.550000 -0.730000
						CHANNELS 3 Zrotation Yrotation Xrotation
						JOINT RightForeArm
						{
							OFFSET -5.450000 0.000000 0.000000
							CHANNELS 3 Zrotation Yrotation Xrotation
							JOINT RightHand
							{
								OFFSET -3.450000 0.000000 0.000000
								CHANNELS 3 Zrotation Yrotation Xrotation
								JOINT RightHandIndex1
								{
									OFFSET -0.750000 0.000000 0.000000
									CHANNELS 3 Zrotation Yrotation Xrotation
									End Site
									{
										OFFSET 0.000000 0.000000 0.000000
									}
								}
							}
						}
					}
				}
			}
		}
	}
}
MOTION
Frames: 10
Frame Time: 0.016667
-2.225130 17.368430 -5.636180 -0.598815 -23.097117 -13.500160 -15.000426 13.934359 2.623810 -1.708310 -2.030874 -14.268502 17.096991 0.773866 42.440765 0.404034 6.791827 2.144611 -0.030720 -0.074910 -0.078150 18.262863 -11.012170 2.994200 -15.388752 3.070811 -11.522585 20.220159 -14.636698 33.578723 -0.707519 -7.305542 1.784846 0.041750 0.244490 0.019350 -3.589545 -2.328081 -7.368715 9.393627 0.663991 15.653432 0.397302 0.711154 12.745850 0.509384 -6.157370 -12.032946 -17.381067 12.253912 49.069260 -1.023400 6.962840 4.746630 4.070665 -8.893466 5.329942 14.811165 1.617203 0.147504 21.232040 -23.014059 -1.969299 -3.833728 3.150021 0.120640 0.162660 -0.099690 0.051650 -4.798729 14.631641 5.061436 -17.792966 8.996715 -5.400279 -47.182251 38.643618 -12.517544 2.199860 -1.427808 -0.185510 0.168130 0.132000 -0.049170 
-2.198310 17.261140 -5.623630 -1.062456 -22.946996 -13.794564 -15.003958 13.729520 2.556534 -2.752118 -1.828569 -14.272956 21.538394 -1.196845 41.698126 0.459579 6.877071 2.117920 -0.054560 -0.123160 -0.065040 18.283984 -10.786087 3.356053 -16.655746 3.810999 -10.981081 26.895380 -16.237692 30.771298 -0.848772 -7.725511 1.635619 0.010170 0.222610 0.031460 -3.690393 -2.105428 -7.521471 11.005794 1.537164 16.036948 1.176720 1.482259 13.239631 1.056826 -5.716088 -12.420722 -16.090245 11.032941 50.126275 -2.354030 6.589570 5.215560 4.326807 -9.442716 5.768599 13.727758 2.567351 0.219427 19.394369 -23.618316 -1.684239 -3.826262 3.164204 0.130530 0.159950 -0.096670 0.026520 -6.057613 15.289335 5.303481 -17.714884 10.207511 -5.824740 -48.440960 37.533034 -12.759959 2.219273 -1.427732 -0.184520 0.142790 0.145670 -0.065860 
-2.162710 17.144400 -5.608590 -1.136510 -22.142922 -14.187402 -14.969588 13.430685 2.518401 -4.322946 -1.562873 -13.422063 24.742760 -2.540293 39.219929 0.489076 6.716445 2.189679 -0.080540 -0.156870 -0.064740 18.348592 -10.624641 3.677157 -18.545104 4.225816 -9.975710 33.336910 -16.963341 26.682181 -0.948092 -7.969471 1.555473 -0.014530 0.218620 0.036570 -3.928656 -1.702237 -7.608978 13.049961 2.148984 15.714908 0.914704 1.980028 14.149926 1.568635 -5.275589 -12.826668 -14.813072 10.136132 51.440124 -3.508500 6.521360 6.306180 5.189554 -10.034684 6.247983 12.617003 2.625403 0.264444 17.543843 -24.047526 -1.350491 -3.819649 3.173908 0.113520 0.172480 -0.102530 0.014440 -7.886985 15.727389 5.480356 -16.795470 12.170501 -6.110440 -50.291019 36.507215 -13.369637 2.245017 -1.450135 -0.179750 0.124850 0.149470 -0.067530 
-2.122050 17.021620 -5.589330 -1.068860 -21.100218 -13.923859 -14.951874 13.047127 2.589976 -6.373783 -1.721299 -13.810493 28.451614 -4.046407 38.679958 0.540714 6.977159 2.103373 -0.046990 -0.119820 -0.035640 18.416271 -10.412590 3.949406 -20.574988 4.609487 -9.229579 38.996934 -16.811405 22.326449 -1.034204 -8.062649 1.516850 0.021140 0.207790 0.042330 -4.144759 -1.313252 -7.745541 15.026014 3.127786 15.674445 0.714550 3.085888 14.210529 1.793824 -5.235876 -12.445961 -14.062280 8.882580 49.201844 -4.094930 5.800320 3.860170 5.663697 -9.738285 5.909617 12.036020 1.299145 0.507065 15.479081 -25.674331 -1.091311 -3.795632 3.185123 0.130680 0.170080 -0.091720 0.011960 -8.935260 15.664813 5.308739 -17.264051 12.527608 -6.335408 -52.644713 36.385395 -14.266126 2.229605 -1.458363 -0.185740 0.147150 0.146670 -0.080680 
-2.089290 16.883580 -5.575770 -1.037867 -20.423694 -14.116881 -14.946511 12.795307 2.643374 -7.842715 -1.670938 -13.509707 31.493540 -5.232823 38.810929 0.671494 7.336765 1.982512 -0.027140 -0.087180 -0.032470 18.456022 -10.273134 4.115096 -22.196523 4.897889 -8.108580 42.591242 -16.648223 19.730866 -1.104118 -8.181603 1.470507 0.032630 0.195720 0.056250 -4.264358 -1.059112 -7.832610 16.238615 3.865523 15.490558 1.026024 3.649071 14.677695 1.945404 -5.026041 -12.538506 -13.200551 8.383095 48.592137 -3.866010 5.461460 3.205040 6.704714 -9.662482 6.138096 10.827995 0.995372 0.700270 13.028000 -25.896172 -0.610422 -3.769840 3.242458 0.118630 0.166990 -0.081200 0.013530 -10.257146 15.605739 5.233506 -17.000891 12.964757 -6.375950 -53.528301 37.186221 -14.965948 2.227691 -1.476123 -0.160770 0.131850 0.139160 -0.071520 
-2.050520 16.751510 -5.552320 -1.328080 -19.805010 -13.567163 -14.912596 12.603688 2.660977 -8.522397 -1.727011 -13.930929 32.779254 -5.826485 40.117149 0.794584 7.684882 1.877371 -0.051310 -0.109750 -0.043520 18.509794 -10.201855 4.252398 -23.462173 5.197768 -7.318319 45.433234 -16.724603 18.164970 -1.164405 -8.311282 1.436389 0.004260 0.194170 0.058900 -4.424672 -0.795379 -7.900122 17.862593 4.266727 14.662389 0.732490 3.985518 14.689409 2.459882 -4.818268 -13.219788 -12.361000 8.266559 48.252263 -4.239320 6.048680 3.720590 7.479599 -10.391661 6.863964 9.825921 1.863850 0.816290 9.885568 -25.495594 0.069605 -3.744516 3.259487 0.112800 0.170740 -0.076840 0.011650 -11.962094 16.219630 5.449895 -16.660693 13.178975 -6.314166 -52.164831 38.469720 -14.837496 2.235587 -1.480478 -0.153300 0.117960 0.139060 -0.067590 
-2.031720 16.681770 -5.520010 -1.235170 -18.653708 -12.917242 -14.869786 12.485125 2.620806 -8.753722 -1.591526 -13.663315 32.526317 -5.724710 40.414554 0.851141 7.689720 1.894119 -0.080100 -0.146380 -0.053490 18.562993 -10.229910 4.309607 -24.323120 5.237646 -6.498791 46.585194 -16.675121 17.185969 -1.181984 -8.367152 1.428032 -0.034500 0.192700 0.058730 -4.570947 -0.531665 -7.874812 18.876047 4.745197 13.206541 0.414080 4.273180 14.927365 2.916317 -4.706309 -13.804464 -12.373750 7.865818 49.764340 -5.124800 5.948980 5.595400 7.532967 -11.095546 7.349466 8.865996 1.161513 0.985567 7.011327 -24.410211 0.663194 -3.715096 3.244549 0.093520 0.174510 -0.077720 0.016950 -12.792308 16.819283 5.784334 -16.528740 12.899377 -5.972428 -50.036022 40.015439 -14.317004 2.253032 -1.486754 -0.141550 0.098090 0.129390 -0.056120 
-2.015530 16.616000 -5.518600 -1.220102 -17.773790 -12.529802 -14.814299 12.439270 2.523421 -8.280030 -1.426822 -13.493734 31.494596 -5.305314 40.877488 0.837854 7.642448 1.917387 -0.100100 -0.170620 -0.064580 18.624379 -10.251089 4.375484 -25.094047 5.336072 -6.082698 47.747050 -16.754812 16.595079 -1.197714 -8.441356 1.408404 -0.047580 0.201350 0.050980 -4.744604 -0.370302 -7.818697 20.126806 4.601983 12.661064 -0.648886 4.255616 15.103496 3.081965 -5.201599 -13.964118 -13.629691 8.174855 50.283081 -5.805010 5.934650 6.475770 7.885998 -11.016040 7.460102 8.275550 1.304079 1.210266 4.391272 -25.494409 1.184435 -3.688010 3.265467 0.082430 0.182080 -0.090100 0.016210 -13.484364 16.986520 5.758794 -16.327312 13.142292 -5.682196 -47.914733 42.112091 -14.008496 2.230437 -1.479799 -0.147940 0.099910 0.133830 -0.053050 
-2.013390 16.591710 -5.513210 -1.479880 -16.669621 -11.537020 -14.765335 12.445717 2.375153 -6.899429 -1.431764 -14.020719 29.762155 -4.614553 41.184937 0.812002 7.470103 1.983979 -0.121410 -0.183870 -0.099540 18.677353 -10.294158 4.417518 -25.195380 5.130462 -6.333134 48.272610 -16.619179 15.900158 -1.185796 -8.430554 1.427397 -0.062420 0.235310 0.057200 -4.880110 -0.238125 -7.736549 20.691555 4.547465 11.410603 -0.945967 4.088941 14.763105 2.956418 -5.078043 -13.788781 -13.268881 8.535325 50.375172 -5.471370 6.511910 8.065220 8.101179 -10.827484 7.422779 7.425350 1.445973 1.391069 1.538613 -28.968669 1.918063 -3.663119 3.364042 0.044930 0.210170 -0.109580 0.037000 -13.502903 16.390553 5.557359 -14.941742 13.060137 -5.091118 -46.457850 46.371598 -14.596407 2.164634 -1.459766 -0.140660 0.087140 0.128780 -0.029890 
-2.022160 16.624280 -5.509980 -1.610630 -15.885771 -10.708265 -14.714144 12.504147 2.191611 -5.151510 -1.244309 -14.120652 27.055894 -3.413778 40.714880 0.710510 7.088641 2.109154 -0.123260 -0.178160 -0.119590 18.721272 -10.380676 4.448440 -25.116609 4.897053 -6.796759 47.964538 -16.334933 15.457444 -1.156173 -8.363473 1.453668 -0.059280 0.250710 0.052560 -5.000956 -0.105471 -7.628996 21.034962 4.426348 10.421146 -1.267252 3.961284 14.462901 2.713743 -5.279339 -13.418262 -13.685710 8.303621 50.359746 -5.361030 5.873750 8.641680 8.031544 -10.095852 7.238594 5.603992 2.090144 1.451579 -0.741148 -35.047499 2.701627 -3.635600 3.466834 0.018610 0.217360 -0.124580 0.049900 -12.992281 15.663762 5.259308 -13.192789 13.076476 -4.629207 -44.690476 51.130780 -15.270751 2.092857 -1.419263 -0.133870 0.088480 0.124950 -0.012050 
